<?xml version="1.0" encoding="UTF-8" standalone="no"?>
<svg width="77px" height="31px" viewBox="0 0 77 31" version="1.1" xmlns="http://www.w3.org/2000/svg" xmlns:xlink="http://www.w3.org/1999/xlink" xmlns:sketch="http://www.bohemiancoding.com/sketch/ns">
    <!-- Generator: Sketch 3.3.1 (12005) - http://www.bohemiancoding.com/sketch -->
    <title>read2</title>
    <desc>Created with Sketch.</desc>
    <defs></defs>
    <g id="Page-1" stroke="none" stroke-width="1" fill="none" fill-rule="evenodd" sketch:type="MSPage">
        <g id="Rectangle-1-+-Read-more-+-Shape-Copy-2" sketch:type="MSLayerGroup" transform="translate(-44.000000, -50.000000)">
            <rect id="Rectangle-1" stroke="#272727" stroke-width="5" sketch:type="MSShapeGroup" x="0" y="0" width="353" height="126" rx="140"></rect>
            <path d="M121,64.1514601 L118.28421,64.1514601 C117.612,56.2228275 111.06546,50 103.07979,50 C96.41313,50 90.74901,54.3379987 88.6677,60.3841479 C87.20855,58.5712412 84.98787,57.4126696 82.50154,57.4126696 C80.0129,57.4126696 77.7953,58.5696777 76.33307,60.3825844 C74.25176,54.3364352 68.58841,50 61.92252,50 C53.93839,50 47.39185,56.2228275 46.7181,64.1514601 L44,64.1514601 L44,66.8469763 L46.7181,66.8469763 C47.39185,74.7763908 53.93839,80.9984365 61.92252,81 C70.35479,80.9976547 77.18854,74.0602966 77.19008,65.5 L77.19008,65.5 C77.19624,62.5222676 79.56784,60.1136581 82.50154,60.107404 C85.43139,60.1136581 87.80453,62.5222676 87.81069,65.5 L87.81377,65.5 C87.81531,74.0595148 94.64752,80.9984365 103.07979,80.9984365 C111.06238,80.9984365 117.61046,74.775609 118.28421,66.8469763 L121,66.8469763 L121,64.1514601 L121,64.1514601 Z M61.92175,78.303702 C54.95787,78.2904121 49.32378,72.569476 49.31146,65.4984365 C49.32378,58.427397 54.95787,52.7072426 61.92175,52.6947345 C68.88717,52.7072426 74.52049,58.4281787 74.53358,65.4984365 C74.52049,72.569476 68.88717,78.2911938 61.92175,78.303702 L61.92175,78.303702 Z M103.07979,78.303702 C96.11514,78.2911938 90.48182,72.5710395 90.46796,65.4976547 C90.48182,58.427397 96.11514,52.7080244 103.07979,52.6947345 C110.04444,52.7080244 115.6793,58.4281787 115.69008,65.4976547 C115.6793,72.5710395 110.04367,78.2919756 103.07979,78.303702 L103.07979,78.303702 Z" id="Shape-Copy" fill="#FFFFFF" sketch:type="MSShapeGroup"></path>
        </g>
    </g>
</svg>